<svg width="1024" height="768" viewBox="0 0 1024 768" fill="none" xmlns="http://www.w3.org/2000/svg">
<rect width="1024" height="768" fill="#0D92C7"/>
<rect y="474" width="1024" height="294" fill="#BA7600"/>
<path fill-rule="evenodd" clip-rule="evenodd" d="M712 274H312V474H332V314H372H412V474H612V314H652H692V474H712V274ZM592 314H432V354H592V314Z" fill="#D9D9D9"/>
<path d="M317.999 246.847C323.528 256.452 324.999 274.348 324.999 274.348H347.999L354.499 235.347L324.999 207.847C324.999 207.847 310.443 198.614 302.499 202.847C294.269 207.233 293.11 216.126 294.499 225.347C296.352 237.647 311.794 236.067 317.999 246.847Z" fill="#3CBC15"/>
<path d="M367.999 235.347C369.893 251.353 354.499 274.348 354.499 274.348H386.999C386.999 274.348 395.75 261.644 398.499 252.347C402.542 238.679 398.499 215.847 398.499 215.847C398.499 215.847 390.946 183.564 374.499 175.347C365.136 170.67 347.999 171.347 347.999 171.347C347.999 171.347 336.424 185.146 335.499 195.847C333.78 215.749 365.652 215.51 367.999 235.347Z" fill="#3CBC15"/>
<path d="M410.999 258.847C407.608 265.846 398.499 274.348 398.499 274.348H425.999C425.999 274.348 434.972 244.858 436.499 225.347C437.398 213.862 438.401 207.21 436.499 195.847C434.481 183.787 425.999 166.347 425.999 166.347C425.999 166.347 420.464 148.531 410.999 143.847C402.599 139.691 386.999 143.847 386.999 143.847C386.999 143.847 377.168 148.558 374.499 154.347C368.714 166.897 391.358 168.518 398.499 180.347C406.957 194.358 410.999 220.347 410.999 220.347C410.999 220.347 417.555 245.317 410.999 258.847Z" fill="#3CBC15"/>
<path d="M604.499 185.347L620.999 274.348H644.499C644.499 274.348 653.754 250.844 652.499 235.347C651.597 224.199 644.499 219.032 644.499 207.847C644.499 196.663 655.127 191.219 652.499 180.347C649.339 167.274 639.38 156.983 625.999 158.347C612.59 159.715 604.499 185.347 604.499 185.347Z" fill="#3CBC15"/>
<path d="M600.999 264.347C603.405 270.284 613.999 274.348 613.999 274.348H589.499C589.499 274.348 573.448 262.942 567.499 252.347C558.938 237.099 557.416 224.58 562.499 207.847C566.262 195.463 568.099 181.407 580.999 180.347C587.338 179.827 596.499 185.347 596.499 185.347L600.999 207.847V239.848C600.999 239.848 598.381 257.888 600.999 264.347Z" fill="#3CBC15"/>
<path d="M664.999 451.848C663.469 461.61 652.499 473.848 652.499 473.848H672.499C672.499 473.848 682.159 469.888 685.999 464.848C690.966 458.328 689.432 452.474 690.499 444.348C692.126 431.957 695.943 423.596 690.499 412.348C686.228 403.523 682.302 394.671 672.499 394.848C667.167 394.944 663.784 396.59 659.999 400.348C652.516 407.776 659.999 427.348 659.999 427.348C659.999 427.348 666.511 442.2 664.999 451.848Z" fill="#3CBC15"/>
<path d="M700.999 459.848C697.103 466.849 685.999 473.848 685.999 473.848H714.499C714.499 473.848 719.256 465.534 721.499 459.848C728.345 442.497 725.873 430.989 726.499 412.348C726.794 403.566 734.252 393.982 726.499 389.848C722.394 387.658 719.064 388.582 714.598 389.82L714.499 389.848C708.063 391.632 704.571 394.704 700.999 400.348C695.361 409.258 700.999 427.348 700.999 427.348C700.999 427.348 707.171 448.757 700.999 459.848Z" fill="#3CBC15"/>
</svg>
