<svg width="1020" height="165" viewBox="0 0 1020 165" fill="none" xmlns="http://www.w3.org/2000/svg">
<path d="M900 0H960C993.137 0 1020 26.8629 1020 60V150H900V0Z" fill="#D9D9D9"/>
<path d="M960 0V0C993.137 0 1020 26.8629 1020 60V60H960V0Z" fill="#7FB9FF"/>
<circle cx="990" cy="150" r="15" fill="#D9D9D9"/>
<circle cx="630" cy="150" r="15" fill="#D9D9D9"/>
<circle cx="870" cy="150" r="15" fill="#D9D9D9"/>
<rect x="600" width="300" height="150" fill="#D9D9D9"/>
<rect x="615" y="30" width="30" height="120" fill="#A9A9A9"/>
<rect x="690" y="30" width="120" height="30" fill="#7FB9FF"/>
<rect x="645" y="30" width="30" height="120" fill="#A9A9A9"/>
<rect x="825" y="30" width="30" height="120" fill="#A9A9A9"/>
<rect x="855" y="30" width="30" height="120" fill="#A9A9A9"/>
<rect x="618" y="33" width="54" height="24" fill="#7FB9FF"/>
<rect x="828" y="33" width="54" height="24" fill="#7FB9FF"/>
<circle cx="330" cy="150" r="15" fill="#D9D9D9"/>
<circle cx="570" cy="150" r="15" fill="#D9D9D9"/>
<rect x="300" width="300" height="150" fill="#D9D9D9"/>
<rect x="315" y="30" width="30" height="120" fill="#A9A9A9"/>
<rect x="390" y="30" width="120" height="30" fill="#7FB9FF"/>
<rect x="345" y="30" width="30" height="120" fill="#A9A9A9"/>
<rect x="525" y="30" width="30" height="120" fill="#A9A9A9"/>
<rect x="555" y="30" width="30" height="120" fill="#A9A9A9"/>
<rect x="318" y="33" width="54" height="24" fill="#7FB9FF"/>
<rect x="528" y="33" width="54" height="24" fill="#7FB9FF"/>
<circle cx="30" cy="150" r="15" fill="#D9D9D9"/>
<circle cx="270" cy="150" r="15" fill="#D9D9D9"/>
<rect width="300" height="150" fill="#D9D9D9"/>
<rect x="15" y="30" width="30" height="120" fill="#A9A9A9"/>
<rect x="90" y="30" width="120" height="30" fill="#7FB9FF"/>
<rect x="45" y="30" width="30" height="120" fill="#A9A9A9"/>
<rect x="225" y="30" width="30" height="120" fill="#A9A9A9"/>
<rect x="255" y="30" width="30" height="120" fill="#A9A9A9"/>
<rect x="18" y="33" width="54" height="24" fill="#7FB9FF"/>
<rect x="228" y="33" width="54" height="24" fill="#7FB9FF"/>
</svg>
